<?xml version="1.0" encoding="UTF-8"?><svg id="Layer_2" xmlns="http://www.w3.org/2000/svg" viewBox="0 0 756.09 380.16"><defs><style>.cls-1{fill:#fff;stroke-width:0px;}</style></defs><g id="Layer_1-2"><path class="cls-1" d="M171.5,336.74c52.11-29.67,80.32-86.68,106.17-138.62,22.17-46.54,47.83-92.04,81.92-131.06,21.38-24.43,42.17-49.23,73.92-60.46,18.05-6.77,39.24-10.01,57.48-1.39,10.64,5.25,18.06,16.48,15.81,28.84-2.15,12.16-11.92,21.49-23.17,25.39-13.98,4.81-29.02,5.76-43.59,5.11-15.79-.83-31.54-3.99-46.91-7.1-29.77-6.41-59.39-14.69-88.97-21.17-27.47-5.71-58.34-9.18-85.24.02-21.73,7.54-38.26,25.71-40.73,48.85-2.44,21.54,8.66,43.84,27.24,55,5.8,3.69,15.37,5.76,20.98,1.32-.04.14-.14.46-.06.73,0,0,.18.92.18.92-1.7-4.58-11.07-5.56-15.82-6.02-23.49-1.41-47.12,5.76-67.76,16.66-16.31,9.06-30.89,21.82-40.36,38.01,0,0-.78,1.25-.78,1.25l-.67,1.3-2.68,5.22-1.07,2.7c-8.68,22.92-6.16,50.22,4.22,72.21,8.77,18.46,25.71,31.2,46.1,21.71,11.34-5.57,15.1-15.88,12.87-27.86-3.79-18.17-17.86-33.03-32.09-44.29-24.01-18.59-58.33-19.4-83.9-3.79-11.05,6.71-19.55,17.27-24.35,29.25-4.87,11.99-6.42,25.34-4.34,38.12,3.47,25.02,23.88,44.21,46.73,53.08,5.98,2.48,12.96,4.2,19.26,5.74,22.74,5.78,46.14,3.66,68.4-2.24,6.95-1.76,15.51-4.84,21.21-7.43h0ZM179.71,352.67c-8.02,3.65-16.45,6.51-24.96,8.69-16.86,4.11-33.84,6.88-51.17,5.77-13-.73-25.67-3.58-38.03-7.33-21.16-6.68-40.84-19.51-53.14-38.37-20.11-30.18-15.16-73.88,10.14-99.52,24.59-24.58,67.16-29.49,97.23-12.69,7.48,4.09,14.33,9.26,20.36,15.26,14.61,14.53,29.39,34.03,26,55.97-3.16,18.38-25.15,27.61-41.88,22.39-20.91-7.13-30.72-29.88-35.21-49.9-3.73-17.42-3.57-36,2.37-52.92l1.1-3.02,2.73-5.76.69-1.44.79-1.37c5.54-10.13,13.07-19.4,21.65-27.11,22.05-19.65,50.8-31.45,80.07-34.55,10.75-.64,24.01-1.13,33.43,5.5,2.49,1.82,5.1,5.14,5.68,8.69.88,8.84-9.07,13.84-16.29,14.59-12.21,1.7-23.33-4.26-32.43-11.81-12.99-10.79-21.92-26.25-24.78-42.91-3-16.85.57-34.67,9.52-49.24,11.88-19.63,33.05-32.03,55.02-36.73,46.92-9.84,93.94,5,139.42,15.11,19.53,4.56,39.09,9.01,58.82,11.82,9.37,1.43,18.92,1.91,28.32,1.38,6.95-.43,13.47-1.3,20.02-3.32,3.17-.88,6.06-2.41,8.27-4.73,2.09-2.33,3.62-5.18,1.91-7.99-.61-1.11-2.6-2.61-4.03-3.35,0,0-.31-.11-.31-.11l-1.22-.47c-.41-.16-.78-.35-1.27-.47-19.41-6.32-46.09,4.39-62.29,16.18-11.18,7.78-22.24,19.82-31.53,30.08-10.13,11.06-19.9,22.34-28.89,34.3-24.34,31.88-43.71,67.22-61.36,103.23-27.86,55.04-58.57,115.14-114.77,146.17h0Z"/><path class="cls-1" d="M620.57,42.41c-6.06-9.91-12.58-17.5-23.62-21.32-24.73-9.45-59.66,4.44-70,29.06-1.92,4.98-2.52,10.34-1.7,15.6,1.69,7.54,7.34,16.94,13.97,23.1,19.94,18.73,52,29.03,79.15,30.02,30.89,1,67.65-3.69,93.41-21.79,0,0,2.86-2.08,2.86-2.08.92-.73,1.8-1.5,2.71-2.25l1.35-1.13c.44-.4.86-.83,1.29-1.24l2.58-2.49c7.66-7.28,13.64-16.42,18.31-25.9,2.93-6.31,5.32-12.72,5.88-19.58.85-10.9-4.57-15.44-15.19-16.08,0,0-3.17-.03-3.17-.03-2.23.29-4.38.48-6.61.98-6.84,1.33-13.36,3.71-19.7,6.65-34.37,17.26-59.77,48.2-80.86,79.72-15.94,24.25-28.9,50.06-38.44,77.44-2.79,7.93-6.63,19.71-9.26,27.85-1.54,4.7-5.45,16.71-6.99,21.26-23.43,67.12-78.6,131.36-152.99,138.95-49.81,5.35-128.45-9.56-138.84-67.91-4.28-25.11,6.32-52.52,27.39-67.19,25.99-17.45,59.41-11.43,85.98,1.07,3.32,1.57,7.17,3.43,10.44,5.21,1.95,1.08,7.8,4.59,9.86,5.76,35.82,21.7,68.58,48.41,105.03,68.75,8.81,4.88,18.22,9.39,27.55,13.19,4.91,1.76,10.12,3.73,15.12,5.16,29.83,8.29,64.93,6.37,90.49-11.94,7.51-5.16,13.6-11.83,17.92-19.77,8.71-15.9,8.71-35.68.98-52.02-3.8-8.1-9.21-15.74-16.37-21.16-21.87-17.12-56.25-10.08-66.86,16.38-4.78,11.8-5.73,27.11,2.1,37.74,3.26,4.34,9.45,6.93,14.7,5.29,3.68-1.23,6.6-3.85,8.61-7.18,8.94-15.86,2.18-44.42-4.93-60.3-3.78-8.29-8.52-16.49-15.74-22.22-22.74-17.53-55.24-11.6-80.55-2.62-2.59.97-5.49-.36-6.44-2.95-.97-2.63.42-5.55,3.07-6.46,9.62-3.31,19.5-5.84,29.63-7.3,20.29-2.87,43.42-1.27,59.99,12.29,8.34,6.68,13.86,16,18.18,25.61,9.32,20.67,18.95,64.1-4.81,77.97-9.55,5.83-22.53,2.21-29.09-6.41-10.19-13.56-9.65-31.99-3.72-47.14,12.97-32.78,54.86-41.96,82.21-21.1,8.66,6.41,15.22,15.29,19.87,24.92,9.42,19.24,9.59,43.07-.6,62.11-4.97,9.49-12.45,17.86-21.13,23.98-26.61,19.52-61.78,23.31-93.45,16.9-7.51-1.55-15.02-3.95-22.22-6.54-.93-.27-2.69-.98-3.58-1.35-2.56-1.08-8.17-3.25-10.56-4.44-47.5-21.66-87.36-56.21-132.78-81.25-22.41-11.47-49.95-20.76-73.95-9.3-18.02,8.96-27.57,30.61-25.43,50.18,3.99,33.97,41.07,48.89,70.96,53.97,17.88,3.07,36.18,3.22,54.19.83,14.22-2.2,27.98-6.75,40.81-13.37,43.95-22.97,74.56-66.6,91.16-112.65,6.74-19.39,13.35-40.59,21.04-59.59,23.64-58.01,79.53-138.46,142.49-155.72,5.06-1.35,10.53-2.19,15.79-2.49,17.92-.04,30.16,8.96,27.76,28.17-1.9,12.72-8.02,24.27-15.16,34.7-4.26,6.28-9.64,12.14-15.36,17.23-3.69,3.41-8.03,6.65-12.31,9.3-19.38,12.1-42.34,17.5-64.86,19.5-20.08,1.68-40.33,1.42-60.02-3.58-24.05-7.04-49.49-17.7-63.6-39.67-15.74-24.36-1.92-48.62,20.71-61.92,21.48-13.16,51.74-14.83,71.65,2.49,4.71,4.15,8.58,9.48,12.05,14.54,3.66,5.75-4.53,11.07-8.32,5.55h0Z"/></g></svg>